<svg xmlns="http://www.w3.org/2000/svg" viewBox="0 0 512 512"><defs><style>.cls-1{fill:#fff;}.cls-2{fill:#a4fbc4;fill-rule:evenodd;}</style></defs><title>dowloandIoT</title><g id="Capa_2" data-name="Capa 2"><g id="Layer_1" data-name="Layer 1"><path class="cls-1" d="M482,166h20a10,10,0,0,0,10-10V30A30,30,0,0,0,482,0H356a10,10,0,0,0-10,10V30a10,10,0,0,1-10,10H176a10,10,0,0,1-10-10V10A10,10,0,0,0,156,0H30A30,30,0,0,0,0,30V482a30,30,0,0,0,30,30H482a30,30,0,0,0,30-30V356a10,10,0,0,0-10-10H482a10,10,0,0,1-10-10V176A10,10,0,0,1,482,166Zm0,200h10V482a10,10,0,0,1-10,10H30a10,10,0,0,1-10-10V30A10,10,0,0,1,30,20H146V30a30,30,0,0,0,30,30H336a30,30,0,0,0,30-30V20H482a10,10,0,0,1,10,10V146H482a30,30,0,0,0-30,30V336A30,30,0,0,0,482,366Z"/><path class="cls-1" d="M196,106a10,10,0,0,0-10,10v47a10,10,0,0,0,20,0V116A10,10,0,0,0,196,106Z"/><path class="cls-1" d="M236,106a10,10,0,0,0-10,10v47a10,10,0,0,0,20,0V116A10,10,0,0,0,236,106Z"/><path class="cls-1" d="M276,106a10,10,0,0,0-10,10v47a10,10,0,0,0,20,0V116A10,10,0,0,0,276,106Z"/><path class="cls-1" d="M316,173a10,10,0,0,0,10-10V116a10,10,0,0,0-20,0v47A10,10,0,0,0,316,173Z"/><path class="cls-1" d="M161,306H116c-13.24.48-13.26,19.51,0,20h45a10,10,0,0,0,0-20Z"/><path class="cls-1" d="M161,266H116c-13.24.48-13.26,19.51,0,20h45a10,10,0,0,0,0-20Z"/><path class="cls-1" d="M161,226H116c-13.24.49-13.26,19.51,0,20h45a10,10,0,0,0,0-20Z"/><path class="cls-1" d="M276,336a10,10,0,0,0-10,10v50a10,10,0,0,0,20,0V346A10,10,0,0,0,276,336Z"/><path class="cls-1" d="M236,336a10,10,0,0,0-10,10v50a10,10,0,0,0,20,0V346A10,10,0,0,0,236,336Z"/><path class="cls-1" d="M196,336a10,10,0,0,0-10,10v71H118.55C106.47,378.9,50.86,386.56,50,427c.86,40.45,56.48,48.1,68.55,10H196a10,10,0,0,0,10-10V346A10,10,0,0,0,196,336ZM85,442a15,15,0,0,1-15-15c.75-19.87,29.25-19.87,30,0A15,15,0,0,1,85,442Z"/><path class="cls-1" d="M348,206h48c13.24-.49,13.26-19.51,0-20H348a10,10,0,0,0,0,20Z"/><path class="cls-1" d="M348,246h48c13.24-.49,13.26-19.51,0-20H348a10,10,0,0,0,0,20Z"/><path class="cls-1" d="M348,286h48c13.24-.48,13.26-19.51,0-20H348a10,10,0,0,0,0,20Z"/><path class="cls-1" d="M348,326h48c13.24-.48,13.26-19.51,0-20H348a10,10,0,0,0,0,20Z"/><path class="cls-1" d="M75,118.54V196a10,10,0,0,0,10,10h76a10,10,0,0,0,0-20H95V118.54C133.1,106.47,125.44,50.86,85,50,44.56,50.86,36.91,106.47,75,118.54ZM85,70a15,15,0,0,1,15,15c-.75,19.87-29.25,19.87-30,0A15,15,0,0,1,85,70Z"/><path class="cls-1" d="M427,392a35.05,35.05,0,0,0-33.54,25H326V346a10,10,0,0,0-20,0v81a10,10,0,0,0,10,10h77.46c12.08,38.11,67.68,30.43,68.54-10A35,35,0,0,0,427,392Zm0,50a15,15,0,0,1-15-15c.75-19.87,29.25-19.87,30,0A15,15,0,0,1,427,442Z"/><path class="cls-2" d="M176,156H336a20.06,20.06,0,0,1,20,20V336a20.06,20.06,0,0,1-20,20H176a20.06,20.06,0,0,1-20-20V176A20.06,20.06,0,0,1,176,156Z"/><path class="cls-1" d="M276,326H196a10,10,0,0,1-10-10V196a10,10,0,0,1,10-10H316a10,10,0,0,1,10,10v80a10,10,0,0,1-2.93,7.07l-40,40A10,10,0,0,1,276,326Zm-70-20h65.86L306,271.86V206H206Z"/></g></g></svg>