<svg xmlns="http://www.w3.org/2000/svg" xmlns:xlink="http://www.w3.org/1999/xlink" viewBox="0 0 310.35 278.51"><defs><style>.cls-1{fill:#2a9c9b;stroke:#2a9c9b;}.cls-1,.cls-2,.cls-3,.cls-4{stroke-miterlimit:10;}.cls-2{fill:#d2a539;stroke:#d2a539;opacity:0.5;}.cls-3{fill:#b35234;stroke:#b35234;}.cls-4{fill:#322071;stroke:#322071;}.cls-5{font-size:24px;fill:#2d9291;font-family:MyriadPro-Bold, Myriad Pro;font-weight:700;}</style><symbol id="simbolPlas" data-name="simbolPlas" viewBox="0 0 280.8 280.8"><path class="cls-1" d="M280.29,140.4h0a27.91,27.91,0,0,1-27.83,27.83H28.33A27.91,27.91,0,0,1,.5,140.4h0a27.91,27.91,0,0,1,27.83-27.83H252.46A27.91,27.91,0,0,1,280.29,140.4Z"/><path class="cls-1" d="M140.4.5h0a27.91,27.91,0,0,1,27.83,27.83V252.46a27.91,27.91,0,0,1-27.83,27.83h0a27.91,27.91,0,0,1-27.83-27.83V28.33A27.91,27.91,0,0,1,140.4.5Z"/></symbol></defs><title>newModuleUml</title><g id="Capa_2" data-name="Capa 2"><g id="Capa_1-2" data-name="Capa 1"><circle class="cls-2" cx="154.63" cy="143.74" r="114.58"/><rect class="cls-3" x="106.67" y="84.04" width="9.81" height="39.24" transform="translate(7.92 215.23) rotate(-90)"/><rect class="cls-3" x="91.95" y="108.56" width="9.81" height="88.29" transform="translate(193.72 305.4) rotate(180)"/><rect class="cls-3" x="106.67" y="182.13" width="9.81" height="39.24" transform="translate(-90.18 313.32) rotate(-90)"/><rect class="cls-3" x="192.78" y="69.32" width="9.81" height="39.24" transform="translate(108.74 286.62) rotate(-90)"/><rect class="cls-3" x="207.49" y="93.85" width="9.81" height="88.29"/><rect class="cls-3" x="192.78" y="167.42" width="9.81" height="39.24" transform="translate(10.64 384.72) rotate(-90)"/><rect class="cls-4" x="154.63" y="167.42" width="23.44" height="39.24"/><rect class="cls-4" x="131.19" y="82.73" width="23.44" height="39.24"/><use width="280.79" height="280.79" transform="translate(269.21 20.43) scale(0.09)" xlink:href="#simbolPlas"/><use width="280.79" height="280.79" transform="translate(0 153.48) scale(0.09)" xlink:href="#simbolPlas"/><use width="280.79" height="280.79" transform="translate(260.59 245.16) scale(0.09)" xlink:href="#simbolPlas"/><circle class="cls-3" cx="17.17" cy="83.34" r="4.81"/><circle class="cls-3" cx="302.96" cy="173.06" r="6.89"/><circle class="cls-3" cx="156.73" cy="6.7" r="6.2"/><circle class="cls-3" cx="81.09" cy="273.2" r="4.81"/><text class="cls-5" transform="translate(131.19 154.4)">UML</text></g></g></svg>