<svg id="Capa_1" enable-background="new 0 0 512 512" height="512" viewBox="0 0 512 512" width="512" xmlns="http://www.w3.org/2000/svg"><g><path d="m493.852 76.304-28.036 30.997-430.008-6.863-17.659-24.134 17.35-24.612c1.841-2.612 4.837-4.165 8.033-4.165h424.936c3.196 0 6.192 1.554 8.033 4.165z" fill="#f9ef63"/><path d="m476.501 51.693c-1.841-2.612-4.837-4.165-8.033-4.165h-23.152c3.196 0 6.192 1.554 8.033 4.165l17.35 24.612 8.158 19.577 14.994-19.577z" fill="#f6e738"/><path d="m501.255 464.473h-490.509c-1.792 0-3.246-1.453-3.246-3.246v-381.677c0-1.792 1.453-3.246 3.246-3.246h490.509c1.792 0 3.246 1.453 3.246 3.246v381.678c-.001 1.792-1.454 3.245-3.246 3.245z" fill="#f6f9f9"/><path d="m501.255 76.304h-19.958c1.792 0 3.245 1.453 3.245 3.246v381.678c0 1.792-1.453 3.245-3.245 3.245h19.958c1.792 0 3.246-1.453 3.246-3.245v-381.678c-.001-1.793-1.454-3.246-3.246-3.246z" fill="#dae4ea"/><g><g><circle cx="73.614" cy="191.959" fill="#dd636e" r="23.017"/><path d="m73.614 168.941c-2.912 0-5.695.546-8.259 1.533 8.63 3.32 14.758 11.684 14.758 21.485 0 9.8-6.128 18.164-14.758 21.485 2.564.987 5.347 1.533 8.259 1.533 12.712 0 23.017-10.305 23.017-23.017s-10.305-23.019-23.017-23.019z" fill="#da4a54"/></g><g><circle cx="256" cy="191.959" fill="#738b95" r="23.017"/><path d="m256 168.941c-2.912 0-5.695.546-8.259 1.533 8.63 3.32 14.758 11.684 14.758 21.485 0 9.8-6.128 18.164-14.758 21.485 2.564.987 5.347 1.533 8.259 1.533 12.712 0 23.017-10.305 23.017-23.017s-10.305-23.019-23.017-23.019z" fill="#617881"/></g><g><circle cx="153.483" cy="374.353" fill="#f9ef63" r="23.017"/><path d="m153.483 397.37c-2.912 0-5.695-.546-8.259-1.533 8.63-3.32 14.758-11.684 14.758-21.485 0-9.8-6.128-18.164-14.758-21.485 2.564-.987 5.347-1.533 8.259-1.533 12.712 0 23.017 10.305 23.017 23.017s-10.305 23.019-23.017 23.019z" fill="#f6e738"/></g><g><circle cx="335.869" cy="374.353" fill="#b3e59f" r="23.017"/><path d="m335.869 397.37c-2.912 0-5.695-.546-8.259-1.533 8.63-3.32 14.758-11.684 14.758-21.485 0-9.8-6.128-18.164-14.758-21.485 2.564-.987 5.347-1.533 8.259-1.533 12.712 0 23.017 10.305 23.017 23.017s-10.305 23.019-23.017 23.019z" fill="#95d6a4"/></g></g><g><path d="m504.5 68.804h-6.76l-15.109-21.432c-3.241-4.6-8.536-7.346-14.163-7.346h-73.225c-4.143 0-7.5 3.357-7.5 7.5s3.357 7.5 7.5 7.5h73.225c.756 0 1.466.369 1.902.987l9.017 12.79h-446.775l9.017-12.79c.436-.618 1.147-.987 1.903-.987h321.725c4.143 0 7.5-3.357 7.5-7.5s-3.357-7.5-7.5-7.5h-321.725c-5.626 0-10.921 2.745-14.163 7.345l-15.109 21.433h-6.76c-4.143 0-7.5 3.357-7.5 7.5v388.169c0 4.143 3.357 7.5 7.5 7.5h53.693c4.143 0 7.5-3.357 7.5-7.5s-3.357-7.5-7.5-7.5h-46.193v-373.169h482v373.169h-405.819c-4.143 0-7.5 3.357-7.5 7.5s3.357 7.5 7.5 7.5h413.319c4.143 0 7.5-3.357 7.5-7.5v-388.169c0-4.142-3.357-7.5-7.5-7.5z"/><path d="m337.287 106.961h-106.338c-4.143 0-7.5 3.357-7.5 7.5s3.357 7.5 7.5 7.5h106.338c4.143 0 7.5-3.357 7.5-7.5s-3.357-7.5-7.5-7.5z"/><path d="m203.466 121.961c4.143 0 7.5-3.357 7.5-7.5s-3.357-7.5-7.5-7.5h-28.753c-4.143 0-7.5 3.357-7.5 7.5s3.357 7.5 7.5 7.5z"/><path d="m39.673 266.596c-4.143 0-7.5 3.357-7.5 7.5v18.119c0 4.143 3.357 7.5 7.5 7.5s7.5-3.357 7.5-7.5v-1.56h98.407v54.218c-13.009 3.49-22.615 15.385-22.615 29.48 0 16.827 13.69 30.517 30.518 30.517s30.517-13.69 30.517-30.517c0-14.384-10.004-26.476-23.42-29.684v-54.013h167.387v54.217c-13.009 3.49-22.615 15.384-22.615 29.48 0 16.827 13.689 30.517 30.517 30.517s30.518-13.689 30.518-30.517c0-14.384-10.004-26.475-23.419-29.684v-54.014h121.86v1.56c0 4.143 3.357 7.5 7.5 7.5s7.5-3.357 7.5-7.5v-18.119c0-4.143-3.357-7.5-7.5-7.5s-7.5 3.357-7.5 7.5v1.56h-201.729v-54.014c13.415-3.208 23.419-15.3 23.419-29.684 0-16.827-13.69-30.517-30.518-30.517s-30.517 13.689-30.517 30.517c0 14.096 9.606 25.99 22.615 29.48v54.217h-167.386v-54.013c13.416-3.208 23.42-15.3 23.42-29.684 0-16.827-13.69-30.517-30.518-30.517s-30.518 13.689-30.518 30.517c0 14.095 9.606 25.989 22.615 29.48v54.218h-18.538v-1.56c0-4.142-3.358-7.5-7.5-7.5zm129.327 107.757c0 8.556-6.961 15.517-15.518 15.517s-15.518-6.961-15.518-15.517c0-8.557 6.961-15.518 15.518-15.518s15.518 6.961 15.518 15.518zm182.386 0c0 8.556-6.961 15.517-15.518 15.517-8.556 0-15.517-6.961-15.517-15.517 0-8.557 6.961-15.518 15.517-15.518 8.557 0 15.518 6.961 15.518 15.518zm-110.903-182.395c0-8.556 6.961-15.517 15.517-15.517 8.557 0 15.518 6.961 15.518 15.517 0 8.557-6.961 15.518-15.518 15.518-8.556 0-15.517-6.961-15.517-15.518zm-182.386 0c0-8.556 6.961-15.517 15.518-15.517s15.518 6.961 15.518 15.517c0 8.557-6.961 15.518-15.518 15.518s-15.518-6.961-15.518-15.518z"/><path d="m134.85 157.174-18.661 18.661c-2.929 2.93-2.929 7.678 0 10.607 1.465 1.464 3.385 2.196 5.304 2.196s3.839-.732 5.304-2.196l16.464-16.465h56.972c4.143 0 7.5-3.357 7.5-7.5s-3.357-7.5-7.5-7.5h-60.078c-1.991.001-3.898.791-5.305 2.197z"/><path d="m200.231 177.09h-8.991c-4.143 0-7.5 3.357-7.5 7.5s3.357 7.5 7.5 7.5h8.991c4.143 0 7.5-3.357 7.5-7.5s-3.357-7.5-7.5-7.5z"/><path d="m169.683 177.09h-17.363c-4.143 0-7.5 3.357-7.5 7.5s3.357 7.5 7.5 7.5h17.362c4.143 0 7.5-3.357 7.5-7.5s-3.357-7.5-7.499-7.5z"/><path d="m200.231 201.347h-8.991c-4.143 0-7.5 3.357-7.5 7.5s3.357 7.5 7.5 7.5h8.991c4.143 0 7.5-3.357 7.5-7.5s-3.357-7.5-7.5-7.5z"/><path d="m169.683 201.347h-17.363c-4.143 0-7.5 3.357-7.5 7.5s3.357 7.5 7.5 7.5h17.362c4.143 0 7.5-3.357 7.5-7.5s-3.357-7.5-7.499-7.5z"/><path d="m379.91 154.978h-60.078c-1.989 0-3.896.79-5.304 2.196l-18.661 18.661c-2.929 2.93-2.929 7.678 0 10.607 1.465 1.464 3.385 2.196 5.304 2.196s3.839-.732 5.304-2.196l16.464-16.465h56.972c4.143 0 7.5-3.357 7.5-7.5s-3.358-7.499-7.501-7.499z"/><path d="m379.91 177.09h-8.991c-4.143 0-7.5 3.357-7.5 7.5s3.357 7.5 7.5 7.5h8.991c4.143 0 7.5-3.357 7.5-7.5s-3.357-7.5-7.5-7.5z"/><path d="m349.361 177.09h-17.362c-4.143 0-7.5 3.357-7.5 7.5s3.357 7.5 7.5 7.5h17.362c4.143 0 7.5-3.357 7.5-7.5s-3.357-7.5-7.5-7.5z"/><path d="m379.91 201.347h-8.991c-4.143 0-7.5 3.357-7.5 7.5s3.357 7.5 7.5 7.5h8.991c4.143 0 7.5-3.357 7.5-7.5s-3.357-7.5-7.5-7.5z"/><path d="m349.361 201.347h-17.362c-4.143 0-7.5 3.357-7.5 7.5s3.357 7.5 7.5 7.5h17.362c4.143 0 7.5-3.357 7.5-7.5s-3.357-7.5-7.5-7.5z"/><path d="m281.529 343.668h-60.078c-1.989 0-3.896.79-5.304 2.196l-18.661 18.661c-2.929 2.93-2.929 7.678 0 10.607 1.465 1.464 3.385 2.196 5.304 2.196s3.839-.732 5.304-2.196l16.464-16.465h56.972c4.143 0 7.5-3.357 7.5-7.5s-3.358-7.499-7.501-7.499z"/><path d="m281.529 365.781h-8.991c-4.143 0-7.5 3.357-7.5 7.5s3.357 7.5 7.5 7.5h8.991c4.143 0 7.5-3.357 7.5-7.5s-3.357-7.5-7.5-7.5z"/><path d="m250.98 365.781h-17.362c-4.143 0-7.5 3.357-7.5 7.5s3.357 7.5 7.5 7.5h17.362c4.143 0 7.5-3.357 7.5-7.5s-3.357-7.5-7.5-7.5z"/><path d="m281.529 390.038h-8.991c-4.143 0-7.5 3.357-7.5 7.5s3.357 7.5 7.5 7.5h8.991c4.143 0 7.5-3.357 7.5-7.5s-3.357-7.5-7.5-7.5z"/><path d="m250.98 390.038h-17.362c-4.143 0-7.5 3.357-7.5 7.5s3.357 7.5 7.5 7.5h17.362c4.143 0 7.5-3.357 7.5-7.5s-3.357-7.5-7.5-7.5z"/><path d="m461.208 343.668h-60.078c-1.989 0-3.896.79-5.304 2.196l-18.661 18.661c-2.929 2.93-2.929 7.678 0 10.607 1.465 1.464 3.385 2.196 5.304 2.196s3.839-.732 5.304-2.196l16.464-16.465h56.972c4.143 0 7.5-3.357 7.5-7.5s-3.358-7.499-7.501-7.499z"/><path d="m461.208 365.781h-8.991c-4.143 0-7.5 3.357-7.5 7.5s3.357 7.5 7.5 7.5h8.991c4.143 0 7.5-3.357 7.5-7.5s-3.357-7.5-7.5-7.5z"/><path d="m430.659 365.781h-17.362c-4.143 0-7.5 3.357-7.5 7.5s3.357 7.5 7.5 7.5h17.362c4.143 0 7.5-3.357 7.5-7.5s-3.357-7.5-7.5-7.5z"/><path d="m461.208 390.038h-8.991c-4.143 0-7.5 3.357-7.5 7.5s3.357 7.5 7.5 7.5h8.991c4.143 0 7.5-3.357 7.5-7.5s-3.357-7.5-7.5-7.5z"/><path d="m430.659 390.038h-17.362c-4.143 0-7.5 3.357-7.5 7.5s3.357 7.5 7.5 7.5h17.362c4.143 0 7.5-3.357 7.5-7.5s-3.357-7.5-7.5-7.5z"/></g></g></svg>