<svg id="Layer_1" enable-background="new 0 0 511.989 511.989" height="512" viewBox="0 0 511.989 511.989" width="512" xmlns="http://www.w3.org/2000/svg"><g><path clip-rule="evenodd" d="m379.038 133.001-78.043-45.059-45 25.981-45-25.981-78.043 45.059v51.961l-45 25.981v90.115l45 25.981v51.961l78.043 45.059 45-25.981 45 25.981 78.043-45.059v-51.961l45-25.981v-90.115l-45-25.981zm-168.043 97.02 45-25.981 45 25.981v51.961l-45 25.981-45-25.981z" fill="#ffbebc" fill-rule="evenodd"/><g fill="#020288"><path d="m305.995 415.4-45-25.981c-3.094-1.787-6.906-1.787-10 0l-45 25.981c-3.094 1.786-5 5.088-5 8.66v51.961c0 3.572 1.906 6.874 5 8.66 0 0 44.881 25.912 44.881 25.912 2.989 1.861 7.249 1.863 10.238 0 0 0 44.881-25.912 44.881-25.912 3.094-1.786 5-5.088 5-8.66v-51.961c0-3.572-1.906-6.874-5-8.66zm-50-5.775 25 14.434-25 14.434-25-14.434zm-35 31.755 25 14.434v28.867l-25-14.434zm45 43.301v-28.867l25-14.434v28.867z"/><path d="m37.952 193.623 44.881 25.912c1.489.899 3.304 1.413 5.119 1.409 1.815.003 3.629-.509 5.119-1.409 0 0 44.881-25.912 44.881-25.912 3.094-1.786 5-5.088 5-8.66v-51.961c0-3.572-1.906-6.874-5-8.66l-45-25.981c-3.094-1.787-6.906-1.787-10 0l-45 25.981c-3.094 1.786-5 5.088-5 8.66v51.961c0 3.572 1.906 6.873 5 8.66zm15-43.302 25 14.434v28.867l-25-14.434zm45 43.302v-28.867l25-14.434v28.867zm-10-75.056 25 14.434-25 14.434-25-14.434z"/><path d="m474.038 124.341-45-25.981c-3.094-1.787-6.906-1.787-10 0 0 0-45 25.981-45 25.981-3.094 1.786-5 5.088-5 8.66v51.961c0 3.572 1.906 6.874 5 8.66 0 0 44.881 25.912 44.881 25.912 2.989 1.861 7.249 1.863 10.238 0 0 0 44.881-25.912 44.881-25.912 3.094-1.786 5-5.088 5-8.66v-51.961c0-3.572-1.906-6.874-5-8.66zm-50-5.774 25 14.434-25 14.434-25-14.434zm-35 31.754 25 14.434v28.867l-25-14.434zm45 43.302v-28.867l25-14.434v28.867z"/><path d="m474.038 318.379-45-25.981c-3.094-1.787-6.906-1.787-10 0l-40 23.095-68.043-39.284v-46.188c0-3.572-1.906-6.874-5-8.66l-40-23.095v-78.569l40-23.094c3.094-1.786 5-5.088 5-8.66v-51.962c0-3.572-1.906-6.874-5-8.66l-45-25.98c-3.094-1.787-6.906-1.787-10 0l-45 25.98c-3.094 1.786-5 5.088-5 8.66v51.962c0 3.572 1.906 6.874 5 8.66l40 23.094v78.569l-40 23.095c-3.094 1.786-5 5.088-5 8.66v46.188l-68.043 39.284s-40-23.095-40-23.095c-3.094-1.787-6.906-1.787-10 0l-45 25.981c-3.094 1.786-5 5.088-5 8.66v51.961c0 3.572 1.906 6.874 5 8.66l44.881 25.912c2.989 1.861 7.249 1.863 10.238 0 0 0 44.881-25.912 44.881-25.912 3.094-1.786 5-5.088 5-8.66v-46.188l68.043-39.284 39.881 23.025c1.489.898 3.304 1.414 5.119 1.409 1.815.005 3.629-.511 5.119-1.409 0 0 39.881-23.025 39.881-23.025l68.043 39.284v46.188c0 3.572 1.906 6.874 5 8.66 0 0 44.881 25.912 44.881 25.912 2.989 1.862 7.249 1.863 10.238 0 0 0 44.881-25.912 44.881-25.912 3.094-1.786 5-5.088 5-8.66v-51.961c0-3.572-1.906-6.873-5-8.66zm-50-5.774 25 14.434-25 14.434-25-14.434zm-203.043-65.264 25 14.434v28.867l-25-14.434zm35-31.755 25 14.434-25 14.434-25-14.434zm10 46.189 25-14.434v28.867l-25 14.434zm0-165.172v-28.867l25-14.434v28.868zm-10-75.056 25 14.434-25 14.434-25.001-14.434zm-35 60.622v-28.867l25 14.434v28.867zm-133.043 230.436 25 14.434-25 14.434-25-14.434zm-35 31.755 25 14.434v28.867l-25-14.434zm70 28.867-25 14.434v-28.867l25-14.434zm266.086-28.867 25 14.434v28.867l-25-14.434zm45 43.301v-28.867l25-14.434v28.867z"/></g></g></svg>