<svg xmlns="http://www.w3.org/2000/svg" viewBox="0 0 341.65 121.52"><defs><style>.cls-1{fill:#5e72e4;stroke:#5e72e4;stroke-width:1.28px;}.cls-1,.cls-2,.cls-3{stroke-miterlimit:10;}.cls-2{fill:#2dce89;stroke:#2dce89;}.cls-2,.cls-3{stroke-width:1.42px;}.cls-3{fill:#172b4d;stroke:#172b4d;}</style></defs><title>logoEWCicon</title><g id="Capa_2" data-name="Capa 2"><g id="Capa_1-2" data-name="Capa 1"><rect class="cls-1" x="0.64" y="0.71" width="56.69" height="120.18" rx="5.67"/><rect class="cls-2" x="64.57" y="0.71" width="56.69" height="56.69" rx="5.67"/><rect class="cls-3" x="64.57" y="63.63" width="56.69" height="56.69" rx="5.67"/><path d="M137.23,56.84h12.06v3.88h-16v-27H149v3.81h-11.8V46.7h10.62v3.7H137.23Z"/><path d="M181,41.22l-6.51,14.92-2.07,4.77-2.11-4.77-2.22-5.07-2.22,5.07-2.07,4.77-2.08-4.77-6.55-14.92h4.19l4.44,10.14L166,46.29l2.07-4.77,2.11,4.77,2.22,5.07,4.44-10.14Z"/><path d="M196.57,41.26a9.68,9.68,0,0,1,6.92,2.85,9.62,9.62,0,0,1,2.09,3.11,9.93,9.93,0,0,1,0,7.62,9.76,9.76,0,0,1-5.19,5.2,10,10,0,0,1-7.63,0,9.74,9.74,0,0,1-3.1-2.09,9.93,9.93,0,0,1-2.1-3.11,10.05,10.05,0,0,1,0-7.62,9.73,9.73,0,0,1,9-6Zm0,15.73a6,6,0,0,0,4.21-1.74,6,6,0,0,0,1.27-1.91,6,6,0,0,0,0-4.62,6,6,0,0,0-1.27-1.91,6,6,0,0,0-4.21-1.74,6,6,0,0,0-4.2,1.74,6.19,6.19,0,0,0-1.29,1.91,5.8,5.8,0,0,0,0,4.62,6.19,6.19,0,0,0,1.29,1.91,6,6,0,0,0,4.2,1.74Z"/><path d="M225.32,42.72a8.06,8.06,0,0,1,2.15,2.05l-2.15,1.71-.81.66a4.71,4.71,0,0,0-1.65-1.48,4.52,4.52,0,0,0-2.2-.55,4.41,4.41,0,0,0-1.81.37,4.77,4.77,0,0,0-1.48,1,4.61,4.61,0,0,0-1,1.48,4.44,4.44,0,0,0-.37,1.81v11h-3.81V41.3H216v1.42a8.29,8.29,0,0,1,2.18-1,8.5,8.5,0,0,1,5,0A8.29,8.29,0,0,1,225.32,42.72Z"/><path d="M245.45,60.87h-4.7l-5.66-7.77-.07.08v7.58h-3.81v-32H235V46.63l.07.07L239,41.34h4.69l-6.25,8.58Z"/><path d="M261,41.3a9.53,9.53,0,0,1,3.81.76A9.73,9.73,0,0,1,268,44.15,10,10,0,0,1,270,47.26a9.93,9.93,0,0,1,0,7.62,9.73,9.73,0,0,1-5.2,5.2,10.05,10.05,0,0,1-7.62,0A10,10,0,0,1,254.11,58,9.73,9.73,0,0,1,252,54.88a9.57,9.57,0,0,1-.76-3.81V28.24h3.81l0,15.09a9.94,9.94,0,0,1,2.78-1.49A9.51,9.51,0,0,1,261,41.3Zm0,15.72a5.92,5.92,0,0,0,5.47-3.64,6,6,0,0,0-1.27-6.53,6,6,0,0,0-1.9-1.28,6,6,0,0,0-4.61,0,6,6,0,0,0-1.9,1.28,6.22,6.22,0,0,0-1.29,1.89,5.53,5.53,0,0,0-.48,2.29v0a5.69,5.69,0,0,0,.48,2.31,6.14,6.14,0,0,0,1.29,1.9A5.9,5.9,0,0,0,261.05,57Z"/><path d="M286.41,41.26a9.71,9.71,0,0,1,3.81.76,9.9,9.9,0,0,1,3.11,2.09,9.78,9.78,0,0,1,2.09,3.11,9.93,9.93,0,0,1,0,7.62,9.73,9.73,0,0,1-5.2,5.2,9.93,9.93,0,0,1-7.62,0,9.73,9.73,0,0,1-5.2-5.2,9.93,9.93,0,0,1,0-7.62,9.62,9.62,0,0,1,2.09-3.11A9.78,9.78,0,0,1,282.6,42,9.67,9.67,0,0,1,286.41,41.26Zm0,15.73a6,6,0,0,0,5.94-6,6.06,6.06,0,0,0-1.74-4.22,6,6,0,0,0-4.2-1.74,6,6,0,0,0-4.21,1.74,6.19,6.19,0,0,0-1.29,1.91,5.8,5.8,0,0,0,0,4.62,6.19,6.19,0,0,0,1.29,1.91A6,6,0,0,0,286.43,57Z"/><path d="M311.79,41.26a9.67,9.67,0,0,1,3.81.76,9.73,9.73,0,0,1,5.2,5.2,9.93,9.93,0,0,1,0,7.62A9.9,9.9,0,0,1,318.71,58,9.78,9.78,0,0,1,315.6,60,9.93,9.93,0,0,1,308,60a9.73,9.73,0,0,1-5.2-5.2,9.93,9.93,0,0,1,0-7.62,9.78,9.78,0,0,1,2.09-3.11A9.9,9.9,0,0,1,308,42,9.67,9.67,0,0,1,311.79,41.26Zm0,15.73a6,6,0,0,0,4.2-1.74,6,6,0,0,0,0-8.44,6,6,0,0,0-4.2-1.74,6,6,0,0,0-4.21,1.74,6.19,6.19,0,0,0-1.29,1.91,5.8,5.8,0,0,0,0,4.62,6.19,6.19,0,0,0,1.29,1.91A6,6,0,0,0,311.81,57Z"/><path d="M341.65,60.87H337l-5.66-7.77-.07.08v7.58H327.4v-32h3.82V46.63l.07.07,3.88-5.36h4.7l-6.25,8.58Z"/><path d="M139.2,79.78a4.6,4.6,0,0,0,2.35-.61,5.07,5.07,0,0,0,1.75-1.63l1.74,1.3A7.27,7.27,0,0,1,142.53,81a7.06,7.06,0,0,1-3.33.8,6.88,6.88,0,0,1-2.82-.58,7.33,7.33,0,0,1-3.85-3.89,7.41,7.41,0,0,1,0-5.7,7.33,7.33,0,0,1,3.85-3.89,6.88,6.88,0,0,1,2.82-.58,7.06,7.06,0,0,1,3.33.8A7.27,7.27,0,0,1,145,70.12l-1.74,1.3a5.07,5.07,0,0,0-1.75-1.63,4.79,4.79,0,0,0-4.3-.19,5,5,0,0,0-1.59,1.14,5.63,5.63,0,0,0-1.08,1.68,5.5,5.5,0,0,0,0,4.12,5.63,5.63,0,0,0,1.08,1.68,5,5,0,0,0,1.59,1.14A4.62,4.62,0,0,0,139.2,79.78Z"/><path d="M148.52,64.24h2.06V81.7h-2.06Z"/><path d="M159.07,71.26a5.18,5.18,0,0,1,2.07.42,5.47,5.47,0,0,1,1.69,1.14,5.31,5.31,0,0,1,1.57,3.78v5.18h-2.06v-1a5.71,5.71,0,0,1-1.5.81,5.08,5.08,0,0,1-1.76.3A5.18,5.18,0,0,1,157,81.5a5.34,5.34,0,0,1-2.83-2.83,5.34,5.34,0,0,1,0-4.15A5.32,5.32,0,0,1,157,71.68,5.09,5.09,0,0,1,159.07,71.26Zm0,8.6a3.17,3.17,0,0,0,1.27-.26,3.39,3.39,0,0,0,1.73-1.74,3.23,3.23,0,0,0,0-2.54,3.39,3.39,0,0,0-1.73-1.74,3.23,3.23,0,0,0-2.54,0,3.39,3.39,0,0,0-1.73,1.74,3.23,3.23,0,0,0,0,2.54,3.39,3.39,0,0,0,1.73,1.74A3.17,3.17,0,0,0,159.08,79.86Z"/><path d="M173.4,76.92a3.56,3.56,0,0,1,.44.87,2.7,2.7,0,0,1,.14,1,2.78,2.78,0,0,1-.3,1.22,3.38,3.38,0,0,1-.74,1,3.28,3.28,0,0,1-1.08.65,3.55,3.55,0,0,1-1.3.21,3.6,3.6,0,0,1-1.73-.5,3.11,3.11,0,0,1-1.17-1.22l1.72-1.2a1.14,1.14,0,0,0,.44.61,1.29,1.29,0,0,0,.8.25,1.33,1.33,0,0,0,.91-.29,1,1,0,0,0,.39-.77.88.88,0,0,0,0-.2v0a.25.25,0,0,1,0-.07.25.25,0,0,0,0-.07,1.16,1.16,0,0,0-.52-.56.78.78,0,0,0-.18-.08l0,0a6,6,0,0,0-.62-.31l-.69-.32q-.35-.17-.69-.36a4.09,4.09,0,0,1-.64-.45v0l-.06-.06a3,3,0,0,1-.66-.93,2.54,2.54,0,0,1-.22-1.13,2.69,2.69,0,0,1,.28-1.12,2.78,2.78,0,0,1,.69-.9,3.38,3.38,0,0,1,1-.6,3.2,3.2,0,0,1,1.24-.2,3.61,3.61,0,0,1,1.55.42,2.89,2.89,0,0,1,1.09,1l-1.68,1.16a1,1,0,0,0-.39-.38,1.13,1.13,0,0,0-.61-.16,1.23,1.23,0,0,0-.79.22.7.7,0,0,0-.33.58.41.41,0,0,0,0,.14.7.7,0,0,0,.2.38,1.26,1.26,0,0,0,.4.26,8.68,8.68,0,0,0,.87.45q.49.22,1,.51a3.22,3.22,0,0,1,.72.46l.1.1A4.39,4.39,0,0,1,173.4,76.92Z"/><path d="M183,76.92a3.56,3.56,0,0,1,.44.87,2.7,2.7,0,0,1,.14,1,2.78,2.78,0,0,1-.3,1.22,3.38,3.38,0,0,1-.74,1,3.28,3.28,0,0,1-1.08.65,3.55,3.55,0,0,1-1.3.21,3.6,3.6,0,0,1-1.73-.5,3.11,3.11,0,0,1-1.17-1.22l1.72-1.2a1.14,1.14,0,0,0,.44.61,1.29,1.29,0,0,0,.8.25,1.33,1.33,0,0,0,.91-.29,1,1,0,0,0,.39-.77.88.88,0,0,0,0-.2v0a.25.25,0,0,1,0-.07.25.25,0,0,0,0-.07,1.16,1.16,0,0,0-.52-.56.78.78,0,0,0-.18-.08l0,0a6,6,0,0,0-.62-.31l-.69-.32-.69-.36a4.09,4.09,0,0,1-.64-.45v0l-.06-.06a3,3,0,0,1-.66-.93,2.54,2.54,0,0,1-.22-1.13,2.69,2.69,0,0,1,.28-1.12,2.78,2.78,0,0,1,.69-.9,3.38,3.38,0,0,1,1-.6,3.2,3.2,0,0,1,1.24-.2,3.61,3.61,0,0,1,1.55.42,2.89,2.89,0,0,1,1.09,1l-1.68,1.16a1,1,0,0,0-.39-.38,1.13,1.13,0,0,0-.61-.16,1.23,1.23,0,0,0-.79.22.7.7,0,0,0-.33.58.41.41,0,0,0,0,.14.7.7,0,0,0,.2.38,1.26,1.26,0,0,0,.4.26,8.68,8.68,0,0,0,.87.45q.5.22,1,.51a3.22,3.22,0,0,1,.72.46l.1.1A4.39,4.39,0,0,1,183,76.92Z"/><path d="M193.84,72A4.22,4.22,0,0,1,195,73.14l-1.16.92-.44.36a2.54,2.54,0,0,0-.89-.8,2.45,2.45,0,0,0-1.19-.3,2.49,2.49,0,0,0-1,.2A2.53,2.53,0,0,0,189,74.86a2.49,2.49,0,0,0-.2,1v5.94h-2.06V71.26h2.06V72a4.44,4.44,0,0,1,1.18-.57,4.59,4.59,0,0,1,2.68,0A4.44,4.44,0,0,1,193.84,72Z"/><path d="M202.3,71.24a5.25,5.25,0,1,1-2.06.41A5.26,5.26,0,0,1,202.3,71.24Zm0,8.5a3.14,3.14,0,0,0,1.25-.25,3.28,3.28,0,0,0,1-.69,3,3,0,0,0,.69-1,3.25,3.25,0,0,0,0-2.5,3,3,0,0,0-.69-1,3.28,3.28,0,0,0-1-.69,3.25,3.25,0,0,0-2.5,0,3.28,3.28,0,0,0-1,.69,3.35,3.35,0,0,0-.7,1,3.13,3.13,0,0,0,0,2.5,3.35,3.35,0,0,0,.7,1,3.28,3.28,0,0,0,1,.69A3.14,3.14,0,0,0,202.31,79.74Z"/><path d="M216,71.24a5.25,5.25,0,1,1-2.06.41A5.26,5.26,0,0,1,216,71.24Zm0,8.5a3.14,3.14,0,0,0,1.25-.25,3.28,3.28,0,0,0,1-.69,3,3,0,0,0,.69-1,3.25,3.25,0,0,0,0-2.5,3,3,0,0,0-.69-1,3.28,3.28,0,0,0-1-.69,3.25,3.25,0,0,0-2.5,0,3.28,3.28,0,0,0-1,.69,3.19,3.19,0,0,0-.7,1,3.13,3.13,0,0,0,0,2.5,3.19,3.19,0,0,0,.7,1,3.28,3.28,0,0,0,1,.69A3.14,3.14,0,0,0,216,79.74Z"/><path d="M238.78,72a4.58,4.58,0,0,1,2.06,3.84v6h-2.06v-6a2.49,2.49,0,0,0-.2-1,2.61,2.61,0,0,0-1.36-1.36,2.49,2.49,0,0,0-1-.2,2.54,2.54,0,0,0-1,.2,2.57,2.57,0,0,0-.82.55,2.53,2.53,0,0,0-.55.81,2.49,2.49,0,0,0-.2,1v6h-2.06v-6a2.49,2.49,0,0,0-.2-1,2.61,2.61,0,0,0-1.36-1.36,2.49,2.49,0,0,0-1-.2,2.54,2.54,0,0,0-1,.2,2.57,2.57,0,0,0-.82.55,2.53,2.53,0,0,0-.55.81,2.49,2.49,0,0,0-.2,1v6h-2.06V71.2h2.06V72a4.76,4.76,0,0,1,1.21-.56,4.66,4.66,0,0,1,2.7,0,4.48,4.48,0,0,1,1.19.56,4.28,4.28,0,0,1,1,1,4.65,4.65,0,0,1,1-1,4.76,4.76,0,0,1,1.21-.56,4.66,4.66,0,0,1,2.7,0A4.48,4.48,0,0,1,238.78,72Z"/></g></g></svg>