<svg xmlns="http://www.w3.org/2000/svg" xmlns:xlink="http://www.w3.org/1999/xlink" viewBox="0 0 185.2 213.11"><defs><style>.cls-1{fill:#2693ae;}.cls-2{fill:#002e45;}.cls-3{fill:#fff;stroke:#fff;}.cls-3,.cls-4,.cls-5,.cls-6{stroke-miterlimit:10;}.cls-4{fill:#d37d30;stroke:#d37d30;}.cls-4,.cls-5,.cls-6{stroke-width:0.75px;}.cls-5{fill:#e2ab2f;stroke:#e2ab2f;}.cls-6{fill:#d9a534;stroke:#d9a534;}</style><symbol id="logoPro" data-name="logoPro" viewBox="0 0 185.2 213.11"><polygon class="cls-1" points="183.24 158.9 183.24 54.21 92.58 1.87 1.92 54.21 1.92 158.9 92.58 211.24 183.24 158.9"/><path class="cls-2" d="M185.12,158.9V66.78c0-4.13.19-8.31,0-12.43-.07-1.46-1.16-1.89-2.23-2.5l-5.56-3.21L156.79,36.78,130.68,21.7,107,8,94.13.6l-.6-.35a1.93,1.93,0,0,0-1.89,0L72.72,11.17,34.43,33.28l-30,17.31C3,51.44.13,52.43.05,54.39c-.11,2.62,0,5.26,0,7.88v94c0,.81,0,1.64,0,2.46a2.35,2.35,0,0,0,1.49,2.07l23.78,13.73L64.14,197l26.17,15.11,1.33.77a1.88,1.88,0,0,0,1.89,0l9-5.22,21.61-12.48L150.42,180,173,167c3.66-2.11,7.46-4.1,11-6.36a1.19,1.19,0,0,1,.15-.09c2.09-1.21.2-4.45-1.89-3.24l-9.05,5.22L151.64,175l-26.23,15.15-22.6,13-7.48,4.32a36.5,36.5,0,0,0-3.54,2l-.15.09h1.89l-9-5.22-21.6-12.47L36.64,176.78,14.05,163.73l-7.48-4.32a34.69,34.69,0,0,0-3.55-2l-.15-.09.93,1.62V58.48a34.88,34.88,0,0,0,0-4.09,1.08,1.08,0,0,1,0-.18l-.93,1.62,9-5.22L33.52,38.14,59.76,23l22.59-13,7.48-4.31a36.74,36.74,0,0,0,3.55-2,.75.75,0,0,1,.15-.09H91.64l9,5.22,21.61,12.48,26.24,15.15,22.59,13,7.48,4.32a37.82,37.82,0,0,0,3.54,2l.16.08-.93-1.62V146c0,4.23-.18,8.51,0,12.73v.18A1.88,1.88,0,0,0,185.12,158.9Z"/><rect class="cls-3" x="36.67" y="75.79" width="111.83" height="61.53"/><rect class="cls-4" x="36.67" y="59.45" width="111.83" height="32.68" rx="16.34"/><rect class="cls-5" x="36.67" y="120.98" width="111.83" height="32.68" rx="16.34"/><circle class="cls-6" cx="92.58" cy="45.48" r="5.87"/><circle class="cls-4" cx="92.58" cy="167.63" r="5.87"/></symbol></defs><title>logoApp1duvca</title><g id="Capa_2" data-name="Capa 2"><g id="Capa_1-2" data-name="Capa 1"><use width="185.2" height="213.11" xlink:href="#logoPro"/></g></g></svg>