<svg id="Layer_1" enable-background="new 0 0 512 512" height="512" viewBox="0 0 512 512" width="512" xmlns="http://www.w3.org/2000/svg"><g><g fill="#020288"><path d="m482 166h20c5.522 0 10-4.478 10-10v-126c0-16.542-13.458-30-29.999-30h-126.001c-5.522 0-10 4.478-10 10v20c0 5.514-4.486 10-10 10h-160c-5.514 0-10-4.486-10-10v-20c0-5.522-4.478-10-10-10h-126c-16.542 0-30 13.458-30 30v452c0 16.542 13.458 30 30 30h452.001c16.541 0 29.999-13.458 29.999-30v-126c0-5.522-4.478-10-10-10h-20c-5.514 0-10-4.486-10-10v-160c0-5.514 4.486-10 10-10zm0 200h10v116c0 5.514-4.485 10-9.999 10h-452.001c-5.514 0-10-4.486-10-10v-452c0-5.514 4.486-10 10-10h116v10c0 16.542 13.458 30 30 30h160c16.542 0 30-13.458 30-30v-10h116.001c5.514 0 9.999 4.486 9.999 10v116h-10c-16.542 0-30 13.458-30 30v160c0 16.542 13.458 30 30 30z"/><path d="m196 106.001c-5.522 0-10 4.478-10 10v46.999c0 5.522 4.478 10 10 10s10-4.478 10-10v-46.999c0-5.522-4.478-10-10-10z"/><path d="m236 106.001c-5.522 0-10 4.478-10 10v46.999c0 5.522 4.478 10 10 10s10-4.478 10-10v-46.999c0-5.522-4.478-10-10-10z"/><path d="m276 106.001c-5.522 0-10 4.478-10 10v46.999c0 5.522 4.478 10 10 10s10-4.478 10-10v-46.999c0-5.522-4.478-10-10-10z"/><path d="m316 173c5.522 0 10-4.478 10-10v-46.999c0-5.522-4.478-10-10-10s-10 4.478-10 10v46.999c0 5.522 4.478 10 10 10z"/><path d="m161.001 306h-45c-13.238.485-13.258 19.507 0 20h45c5.522 0 10-4.478 10-10s-4.478-10-10-10z"/><path d="m161.001 266h-45c-13.238.485-13.258 19.507 0 20h45c5.522 0 10-4.478 10-10s-4.478-10-10-10z"/><path d="m161.001 226h-45c-13.238.485-13.258 19.507 0 20h45c5.522 0 10-4.478 10-10s-4.478-10-10-10z"/><path d="m276 336c-5.522 0-10 4.478-10 10v50c0 5.522 4.478 10 10 10s10-4.478 10-10v-50c0-5.522-4.478-10-10-10z"/><path d="m236 336c-5.522 0-10 4.478-10 10v50c0 5.522 4.478 10 10 10s10-4.478 10-10v-50c0-5.522-4.478-10-10-10z"/><path d="m196 336c-5.522 0-10 4.478-10 10v70.999h-67.454c-12.077-38.102-67.688-30.438-68.545 10.001.86 40.446 56.476 48.097 68.545 9.999h77.454c5.522 0 10-4.478 10-10v-80.999c0-5.522-4.478-10-10-10zm-110.999 106c-8.271 0-15-6.729-15-15.001.753-19.872 29.25-19.867 30 0 0 8.272-6.729 15.001-15 15.001z"/><path d="m348 206h48c13.237-.485 13.259-19.507 0-20h-48c-5.522 0-10 4.478-10 10s4.478 10 10 10z"/><path d="m348 246h48c13.237-.485 13.259-19.507 0-20h-48c-5.522 0-10 4.478-10 10s4.478 10 10 10z"/><path d="m348 286h48c13.237-.485 13.259-19.507 0-20h-48c-5.522 0-10 4.478-10 10s4.478 10 10 10z"/><path d="m348 326h48c13.237-.485 13.259-19.507 0-20h-48c-5.522 0-10 4.478-10 10s4.478 10 10 10z"/><path d="m75.001 118.545v77.455c0 5.522 4.478 10 10 10h76c5.522 0 10-4.478 10-10s-4.478-10-10-10h-66v-67.455c38.102-12.077 30.438-67.688-10.001-68.545-40.444.861-48.095 56.475-9.999 68.545zm10-48.545c8.271 0 15 6.729 15 15-.753 19.872-29.25 19.867-30 0 0-8.271 6.728-15 15-15z"/><path d="m427 391.999c-15.825 0-29.232 10.558-33.545 25h-67.455v-70.999c0-5.522-4.478-10-10-10s-10 4.478-10 10v80.999c0 5.522 4.478 10 10 10h77.455c12.081 38.108 67.688 30.434 68.545-10.001 0-19.298-15.701-34.999-35-34.999zm0 50.001c-8.271 0-15-6.729-15-15.001.753-19.872 29.25-19.867 30 0 0 8.272-6.729 15.001-15 15.001z"/></g><path clip-rule="evenodd" d="m176 156h160c11 0 20 9 20 20v160c0 11-9 20-20 20h-160c-11 0-20-9-20-20v-160c0-11 9-20 20-20z" fill="#a4fbc4" fill-rule="evenodd"/><g><path d="m276.001 326h-80.001c-5.522 0-10-4.478-10-10v-120c0-5.522 4.478-10 10-10h120c5.522 0 10 4.478 10 10v80c0 2.652-1.054 5.195-2.929 7.071l-39.999 40c-1.875 1.875-4.419 2.929-7.071 2.929zm-70.001-20h65.858l34.142-34.142v-65.858h-100z" fill="#020288"/></g></g></svg>