<svg id="Layer_1" enable-background="new 0 0 512.001 512.001" height="512" viewBox="0 0 512.001 512.001" width="512" xmlns="http://www.w3.org/2000/svg"><g><path clip-rule="evenodd" d="m50.001 121.805v260h412v-260h-79.867c-.027 22.005-18.039 40-40.051 40h-183.34c-20.132.428-34.789-21.676-26.634-40z" fill="#e2c4ff" fill-rule="evenodd"/><path d="m482.001 71.805h-127.265c-10.23-81.549-121.693-98.824-155.973-23.77-16.467 1.855-30.808 10.833-39.862 23.77h-128.901c-16.542 0-30 13.458-30 30v300.001c0 16.542 13.458 30 30 30h174.406l-16.077 60.003h-12.328c-13.204.468-13.289 19.496 0 20h159.999c13.205-.469 13.289-19.496 0-20h-12.327l-16.077-60.003h174.406c16.542 0 30-13.458 30-30v-300.001c-.001-16.542-13.459-30-30.001-30zm-276.882-4.126c4.406.223 8.491-2.478 9.958-6.652 23.924-64.819 119.282-48.569 120.253 20.627-.103 5.271 3.934 9.73 9.189 10.151 15.484 1.258 27.613 14.414 27.613 29.95 0 16.57-13.481 30.051-30.051 30.051h-183.337c-24.967-.936-25.039-36.788 0-37.752 5.523 0 10-4.478 10-10 0-20.058 16.318-36.375 36.375-36.375zm50.882 224.126c8.271 0 15 6.729 15 15-.754 19.872-29.249 19.867-30 0 0-8.272 6.729-15 15-15zm-226.001-200h120.084c-.247 1.113-.462 2.238-.643 3.374-43.964 11.766-36.669 75.548 9.303 76.627-.001 0 37.256 0 37.256 0v37.149l-23.81 16.804c-21.974-20.47-58.751-4.565-58.649 25.779 0 19.298 15.701 34.999 35 34.999 22.439.317 39.69-21.936 33.94-43.562l29.285-20.669c2.655-1.874 4.234-4.921 4.234-8.17v-42.331h30v101.455c-38.102 12.076-30.438 67.688 10.001 68.545 40.444-.861 48.094-56.476 9.999-68.545v-101.454h30v42.331c0 3.249 1.579 6.296 4.234 8.17l29.285 20.669c-5.746 21.626 11.498 43.879 33.94 43.561 19.299 0 35-15.7 35-34.999.098-30.345-36.675-46.249-58.649-25.779l-23.81-16.804v-37.149h26.082c40.823.368 64.805-47.872 39.984-80.001h99.935c5.514 0 10 4.486 10 10v270.001h-472.001v-270.001c0-5.514 4.486-10 10-10zm133.542 159.733c0 8.271-6.729 14.999-15 14.999-19.873-.754-19.866-29.248 0-29.999 8.27 0 15 6.729 15 15zm199.918-15c8.271 0 15 6.729 15 15-.754 19.871-29.249 19.865-30 0 0-8.271 6.729-15 15-15zm-60.492 255.271h-93.934l16.077-60.003h61.78zm179.033-80.003h-452.001c-5.514 0-10-4.486-10-10v-10h472.001v10c0 5.513-4.485 10-10 10z" fill="#020288"/></g></svg>